<svg xmlns="http://www.w3.org/2000/svg" viewBox="0 0 160 128" shape-rendering="crispEdges">
  <rect x="34" y="121" width="92" height="6" fill="#172126" opacity=".38"/>
  <path d="M48 7h64v8h10v93h-9v14H45v-14h-9V28h12z" fill="#151d22"/>
  <path d="M53 3h54v8h10v91h-9v14H50v-14h-9V24h12z" fill="#e7dfc9"/>
  <rect x="58" y="8" width="49" height="17" fill="#1eb0c6"/>
  <rect x="62" y="11" width="41" height="11" fill="#f4e8c8"/>
  <rect x="65" y="14" width="5" height="5" fill="#d73532"/>
  <rect x="73" y="14" width="5" height="5" fill="#efc442"/>
  <rect x="81" y="14" width="5" height="5" fill="#2aaec3"/>
  <rect x="89" y="14" width="5" height="5" fill="#3a9851"/>
  <rect x="50" y="32" width="58" height="42" fill="#172029"/>
  <rect x="57" y="39" width="44" height="29" fill="#6bb9c9"/>
  <rect x="62" y="44" width="34" height="19" fill="#274d61"/>
  <rect x="65" y="48" width="5" height="7" fill="#efc442"/>
  <rect x="72" y="46" width="5" height="10" fill="#d73532"/>
  <rect x="80" y="51" width="10" height="4" fill="#8bd0d5"/>
  <rect x="93" y="46" width="2" height="15" fill="#182f3d"/>
  <path d="M49 77h60l7 13H43z" fill="#202830"/>
  <rect x="49" y="78" width="60" height="3" fill="#596168"/>
  <rect x="55" y="73" width="5" height="9" fill="#151b20"/>
  <rect x="53" y="70" width="9" height="6" fill="#d73532"/>
  <rect x="69" y="82" width="7" height="6" fill="#efc442"/>
  <rect x="80" y="82" width="7" height="6" fill="#2aaec3"/>
  <rect x="91" y="82" width="7" height="6" fill="#3a9851"/>
  <rect x="50" y="91" width="59" height="25" fill="#343b42"/>
  <rect x="59" y="95" width="15" height="17" fill="#20272d"/>
  <rect x="84" y="95" width="15" height="17" fill="#20272d"/>
  <rect x="63" y="98" width="7" height="8" fill="#12181d"/>
  <rect x="88" y="98" width="7" height="8" fill="#12181d"/>
  <rect x="65" y="99" width="3" height="3" fill="#ba292b"/>
  <rect x="90" y="99" width="3" height="3" fill="#ba292b"/>
  <rect x="58" y="118" width="43" height="3" fill="#171d21"/>
</svg>