<svg xmlns="http://www.w3.org/2000/svg" viewBox="0 0 160 128" shape-rendering="crispEdges">
  <rect x="42" y="120" width="80" height="6" fill="#262a32" opacity=".3"/>
  <path d="M45 5h75v101h-6v14H45z" fill="#20232b"/>
  <path d="M40 2h74v99h-6v15H40z" fill="#c8c3ad"/>
  <rect x="43" y="5" width="68" height="3" fill="#e8e2cf"/>
  <rect x="43" y="10" width="67" height="49" fill="#292e39"/>
  <rect x="48" y="14" width="57" height="40" fill="#3e4552"/>
  <rect x="56" y="20" width="41" height="28" fill="#99aa70"/>
  <rect x="59" y="23" width="35" height="3" fill="#b7c98a"/>
  <rect x="61" y="29" width="12" height="5" fill="#526348"/>
  <rect x="73" y="34" width="8" height="5" fill="#657653"/>
  <rect x="84" y="38" width="7" height="4" fill="#526348"/>
  <rect x="47" y="62" width="18" height="2" fill="#77746a"/>
  <rect x="71" y="62" width="30" height="2" fill="#77746a"/>
  <rect x="48" y="79" width="26" height="8" fill="#22262e"/>
  <rect x="57" y="70" width="8" height="26" fill="#22262e"/>
  <rect x="52" y="82" width="18" height="3" fill="#343943"/>
  <rect x="84" y="75" width="12" height="12" fill="#94134e"/>
  <rect x="100" y="68" width="12" height="12" fill="#bd2676"/>
  <rect x="87" y="78" width="4" height="3" fill="#d6498d"/>
  <rect x="103" y="71" width="4" height="3" fill="#e76cb0"/>
  <rect x="73" y="101" width="15" height="4" fill="#706d65"/>
  <rect x="94" y="96" width="13" height="4" fill="#706d65"/>
  <rect x="74" y="110" width="3" height="3" fill="#77746a"/>
  <rect x="81" y="109" width="3" height="3" fill="#77746a"/>
  <rect x="88" y="108" width="3" height="3" fill="#77746a"/>
  <rect x="95" y="107" width="3" height="3" fill="#77746a"/>
  <rect x="102" y="106" width="3" height="3" fill="#77746a"/>
  <rect x="43" y="112" width="7" height="3" fill="#a4a08f"/>
</svg>