<svg xmlns="http://www.w3.org/2000/svg" viewBox="0 0 120 96" shape-rendering="crispEdges">
  <rect x="9" y="70" width="102" height="7" fill="#172126" opacity=".42"/>
  <path d="M5 34h7v-8h96v8h7v35h-7v8H12v-8H5z" fill="#07090e"/>
  <path d="M9 31h7v-7h88v7h7v34h-7v7H16v-7H9z" fill="#141b28"/>
  <rect x="29" y="29" width="59" height="38" fill="#070a10"/>
  <rect x="35" y="34" width="47" height="28" fill="#293544"/>
  <rect x="41" y="39" width="34" height="18" fill="#aab19a"/>
  <rect x="44" y="42" width="28" height="12" fill="#879275"/>
  <rect x="47" y="45" width="9" height="3" fill="#53604a"/>
  <rect x="59" y="50" width="8" height="3" fill="#53604a"/>
  <rect x="14" y="42" width="18" height="18" fill="#06080c"/>
  <rect x="18" y="46" width="10" height="10" fill="#2c394b"/>
  <rect x="21" y="42" width="4" height="18" fill="#0f1520"/>
  <rect x="14" y="49" width="18" height="4" fill="#0f1520"/>
  <rect x="91" y="39" width="13" height="13" fill="#080a0f"/>
  <rect x="95" y="43" width="5" height="5" fill="#3b4b62"/>
  <rect x="102" y="51" width="8" height="8" fill="#080a0f"/>
  <rect x="104" y="53" width="4" height="4" fill="#3b4b62"/>
  <rect x="91" y="61" width="5" height="5" fill="#c51f70"/>
  <rect x="99" y="60" width="5" height="5" fill="#c51f70"/>
  <rect x="26" y="25" width="58" height="3" fill="#43699b"/>
  <rect x="29" y="68" width="54" height="3" fill="#43699b"/>
</svg>
