<svg xmlns="http://www.w3.org/2000/svg" viewBox="0 0 160 128" shape-rendering="crispEdges">
  <rect x="13" y="69" width="134" height="8" fill="#35262a" opacity=".28"/>
  <path d="M14 22h16v-6h100v6h16v50h-8v7H22v-7h-8z" fill="#29191d"/>
  <path d="M18 18h25v48H18zM117 18h25v48h-25z" fill="#a51f2b"/>
  <path d="M23 21h14v42H23zM123 21h13v42h-13z" fill="#d0474d"/>
  <rect x="43" y="18" width="74" height="48" fill="#e5d8bb"/>
  <rect x="47" y="21" width="66" height="4" fill="#fff0d1"/>
  <rect x="50" y="28" width="60" height="13" fill="#bd2833"/>
  <rect x="56" y="31" width="48" height="7" fill="#68171e"/>
  <rect x="53" y="47" width="43" height="7" fill="#6f6967"/>
  <rect x="56" y="49" width="27" height="3" fill="#312d31"/>
  <rect x="100" y="46" width="10" height="10" fill="#c9baa0"/>
  <rect x="103" y="48" width="4" height="4" fill="#f3c33f"/>
  <rect x="49" y="59" width="62" height="3" fill="#a29783"/>
  <path d="M61 18v-8h8V6h25v4h8v8z" fill="#30252a"/>
  <rect x="68" y="8" width="27" height="8" fill="#d8c8aa"/>
  <rect x="72" y="9" width="19" height="2" fill="#fff0d0"/>
  <rect x="20" y="67" width="120" height="5" fill="#781922"/>
  <path d="M79 77v8H64v5" fill="none" stroke="#33282c" stroke-width="3"/>
  <path d="M34 87h9v-5h74v5h9v28h-9v6H43v-6h-9z" fill="#33272b"/>
  <rect x="39" y="86" width="82" height="30" fill="#e1d3b6"/>
  <rect x="43" y="89" width="74" height="3" fill="#fff0d1"/>
  <rect x="50" y="98" width="25" height="7" fill="#29252a"/>
  <rect x="59" y="89" width="7" height="25" fill="#29252a"/>
  <rect x="91" y="96" width="9" height="9" fill="#b8202d"/>
  <rect x="105" y="96" width="9" height="9" fill="#b8202d"/>
  <rect x="94" y="98" width="3" height="3" fill="#ef6670"/>
  <rect x="108" y="98" width="3" height="3" fill="#ef6670"/>
  <rect x="87" y="109" width="29" height="3" fill="#776d68"/>
</svg>