<svg xmlns="http://www.w3.org/2000/svg" viewBox="0 0 160 128" shape-rendering="crispEdges">
  <rect x="17" y="69" width="126" height="8" fill="#33343a" opacity=".28"/>
  <path d="M22 24h9v-7h98v7h9v45h-9v8H31v-8h-9z" fill="#292b31"/>
  <path d="M26 20h9v-6h90v6h9v43h-9v7H35v-7h-9z" fill="#d8d8d3"/>
  <rect x="31" y="22" width="4" height="36" fill="#f1f1e9"/>
  <rect x="125" y="22" width="4" height="36" fill="#9b9da0"/>
  <rect x="44" y="22" width="37" height="24" fill="#a5a7aa"/>
  <rect x="50" y="26" width="25" height="16" fill="#72767c"/>
  <rect x="86" y="23" width="35" height="7" fill="#7a7e84"/>
  <rect x="88" y="35" width="31" height="13" fill="#b9bab7"/>
  <rect x="94" y="39" width="19" height="5" fill="#71757b"/>
  <rect x="40" y="53" width="81" height="8" fill="#c1c2be"/>
  <rect x="47" y="56" width="10" height="3" fill="#2d70b7"/>
  <rect x="62" y="56" width="10" height="3" fill="#d5b52c"/>
  <rect x="77" y="56" width="10" height="3" fill="#3c9b4d"/>
  <rect x="92" y="56" width="10" height="3" fill="#c93749"/>
  <path d="M59 14v-7h9V4h31v3h9v7z" fill="#373a40"/>
  <rect x="67" y="6" width="33" height="8" fill="#bfc0bd"/>
  <rect x="40" y="65" width="81" height="3" fill="#939695"/>
  <path d="M80 76v7h-8v6" fill="none" stroke="#36383e" stroke-width="3"/>
  <path d="M27 91h8v-6h90v6h8v24h-8v7H35v-7h-8z" fill="#30333a"/>
  <rect x="33" y="89" width="94" height="28" fill="#deded9"/>
  <rect x="38" y="92" width="84" height="3" fill="#f5f5ec"/>
  <rect x="43" y="101" width="25" height="7" fill="#60646a"/>
  <rect x="52" y="92" width="7" height="25" fill="#60646a"/>
  <rect x="88" y="99" width="8" height="8" fill="#2f6db4"/>
  <rect x="99" y="96" width="8" height="8" fill="#3da34d"/>
  <rect x="99" y="108" width="8" height="8" fill="#cf354a"/>
  <rect x="110" y="103" width="8" height="8" fill="#d9b62c"/>
</svg>